<mxfile host="app.diagrams.net" modified="2023-11-26T08:07:43.542Z" agent="Mozilla/5.0 (Macintosh; Intel Mac OS X 10_15_7) AppleWebKit/537.36 (KHTML, like Gecko) Chrome/118.0.0.0 Safari/537.36" etag="R1XMduMYJx9-gjaGMeZS" version="22.1.4" type="github">
  <diagram name="第 1 页" id="1BEC1NTxo78naEWhqVpl">
    <mxGraphModel dx="858" dy="505" grid="1" gridSize="10" guides="1" tooltips="1" connect="1" arrows="1" fold="1" page="1" pageScale="1" pageWidth="827" pageHeight="1169" math="0" shadow="0">
      <root>
        <mxCell id="0" />
        <mxCell id="1" parent="0" />
        <mxCell id="iMVuX8X0MwT_ZD3ftQ2W-7" style="edgeStyle=orthogonalEdgeStyle;orthogonalLoop=1;jettySize=auto;html=1;exitX=0.5;exitY=1;exitDx=0;exitDy=0;exitPerimeter=0;curved=1;" edge="1" parent="1" source="iMVuX8X0MwT_ZD3ftQ2W-3" target="iMVuX8X0MwT_ZD3ftQ2W-4">
          <mxGeometry relative="1" as="geometry" />
        </mxCell>
        <mxCell id="iMVuX8X0MwT_ZD3ftQ2W-9" style="edgeStyle=orthogonalEdgeStyle;orthogonalLoop=1;jettySize=auto;html=1;exitX=0.5;exitY=1;exitDx=0;exitDy=0;exitPerimeter=0;curved=1;" edge="1" parent="1" source="iMVuX8X0MwT_ZD3ftQ2W-3" target="iMVuX8X0MwT_ZD3ftQ2W-5">
          <mxGeometry relative="1" as="geometry" />
        </mxCell>
        <mxCell id="iMVuX8X0MwT_ZD3ftQ2W-3" value="admin service" style="outlineConnect=0;dashed=0;verticalLabelPosition=bottom;verticalAlign=top;align=center;html=1;shape=mxgraph.aws3.instance;fillColor=#F58534;gradientColor=none;" vertex="1" parent="1">
          <mxGeometry x="220" y="40" width="60" height="63" as="geometry" />
        </mxCell>
        <mxCell id="iMVuX8X0MwT_ZD3ftQ2W-4" value="mysql" style="outlineConnect=0;dashed=0;verticalLabelPosition=bottom;verticalAlign=top;align=center;html=1;shape=mxgraph.aws3.db_on_instance;fillColor=#F58534;gradientColor=none;" vertex="1" parent="1">
          <mxGeometry x="90" y="180" width="60" height="64.5" as="geometry" />
        </mxCell>
        <mxCell id="iMVuX8X0MwT_ZD3ftQ2W-5" value="databend" style="outlineConnect=0;dashed=0;verticalLabelPosition=bottom;verticalAlign=top;align=center;html=1;shape=mxgraph.aws3.db_on_instance;fillColor=#1ba1e2;fontColor=#000000;strokeColor=#006EAF;" vertex="1" parent="1">
          <mxGeometry x="470" y="180" width="60" height="64.5" as="geometry" />
        </mxCell>
        <mxCell id="iMVuX8X0MwT_ZD3ftQ2W-6" value="tidb" style="outlineConnect=0;dashed=0;verticalLabelPosition=bottom;verticalAlign=top;align=center;html=1;shape=mxgraph.aws3.db_on_instance;fillColor=#F58534;gradientColor=none;" vertex="1" parent="1">
          <mxGeometry x="250" y="180" width="60" height="64.5" as="geometry" />
        </mxCell>
        <mxCell id="iMVuX8X0MwT_ZD3ftQ2W-8" style="edgeStyle=orthogonalEdgeStyle;orthogonalLoop=1;jettySize=auto;html=1;exitX=0.5;exitY=1;exitDx=0;exitDy=0;exitPerimeter=0;entryX=0.5;entryY=0;entryDx=0;entryDy=0;entryPerimeter=0;curved=1;" edge="1" parent="1" source="iMVuX8X0MwT_ZD3ftQ2W-3" target="iMVuX8X0MwT_ZD3ftQ2W-6">
          <mxGeometry relative="1" as="geometry" />
        </mxCell>
        <mxCell id="iMVuX8X0MwT_ZD3ftQ2W-10" value="" style="html=1;shadow=0;dashed=0;align=center;verticalAlign=middle;shape=mxgraph.arrows2.arrow;dy=0.6;dx=40;notch=0;" vertex="1" parent="1">
          <mxGeometry x="350" y="197.25" width="100" height="30" as="geometry" />
        </mxCell>
        <mxCell id="iMVuX8X0MwT_ZD3ftQ2W-11" value="tidb" style="outlineConnect=0;dashed=0;verticalLabelPosition=bottom;verticalAlign=top;align=center;html=1;shape=mxgraph.aws3.db_on_instance;fillColor=#F58534;gradientColor=none;" vertex="1" parent="1">
          <mxGeometry x="210" y="530" width="60" height="64.5" as="geometry" />
        </mxCell>
        <mxCell id="iMVuX8X0MwT_ZD3ftQ2W-12" value="" style="html=1;shadow=0;dashed=0;align=center;verticalAlign=middle;shape=mxgraph.arrows2.arrow;dy=0.6;dx=40;notch=0;" vertex="1" parent="1">
          <mxGeometry x="320" y="547.25" width="100" height="30" as="geometry" />
        </mxCell>
        <mxCell id="iMVuX8X0MwT_ZD3ftQ2W-13" value="databend" style="outlineConnect=0;dashed=0;verticalLabelPosition=bottom;verticalAlign=top;align=center;html=1;shape=mxgraph.aws3.db_on_instance;fillColor=#1ba1e2;fontColor=#000000;strokeColor=#006EAF;" vertex="1" parent="1">
          <mxGeometry x="470" y="530" width="60" height="64.5" as="geometry" />
        </mxCell>
      </root>
    </mxGraphModel>
  </diagram>
</mxfile>
